<?xml version="1.0" encoding="utf-8" ?>
<svg xmlns="http://www.w3.org/2000/svg" xmlns:xlink="http://www.w3.org/1999/xlink" width="1024" height="1024" viewBox="0 0 1024 1024">
    <path transform="scale(2 2)" d="M389.25 173.728C389.903 167.549 389.426 153.563 388.852 147.573C386.753 125.643 369.551 107.107 347.76 103.681C342.696 102.885 336.562 103.119 331.39 103.121L149.024 103.113C121.618 103.131 97.2093 113.506 93.178 144.542C92.5401 149.453 92.7406 154.505 92.7422 159.419L92.7438 349.489C92.7394 355.244 92.6218 360.363 93.2177 366.145C95.4128 387.44 112.71 404.412 133.667 407.521C138.657 408.262 143.857 408.018 148.929 408.012L331.453 407.886C348.309 407.756 359.595 407.761 373.393 395.946C393.235 378.955 390.265 359.524 390.268 336.199L390.28 294.896C390.279 289.524 389.148 282.881 392.259 278.181C396.514 271.754 408.293 275.317 408.508 282.164C409.187 303.736 408.519 325.679 408.753 347.304C408.862 357.313 408.953 365.373 406.735 374.862C399.752 404.743 373.48 425.959 342.801 426.252L160.577 426.259C149.906 426.264 138.974 426.801 128.448 424.927C99.7039 419.809 76.7957 394.589 74.9591 365.393C74.4429 357.186 74.5959 349.184 74.6031 340.952L74.605 162.175C74.5761 157.365 74.5198 152.511 74.7228 147.74C75.9562 117.865 98.0721 92.2462 127.424 86.5888C136.69 84.8029 147.5 85.3684 157.005 85.3734L340.443 85.3261C378.164 85.3073 406.858 115.852 406.764 153.247C405.606 155.482 392.57 170.633 389.25 173.728Z"/><path transform="scale(2 2)" d="M161.455 137.083C177.68 133.302 193.071 142.432 196.9 158.866C198.104 164.034 197.145 169.938 196.609 175.202L194.072 198.707C193.674 202.306 192.759 208.974 192.836 212.305C214.612 192.383 236.306 172.512 258.662 153.232C268.1 145.092 273.77 134.713 288.171 135.307C309.054 136.168 319.421 158.6 308.253 175.619C305.938 179.164 302.582 182.108 299.556 185.032C277.831 205.32 255.183 224.815 233.624 245.263C240.899 252.416 248.419 259.167 255.603 266.459L268.528 279.712C271.029 282.227 273.4 284.769 276.214 286.926C273.492 290.663 272.044 294.106 270.072 298.259C268.05 295.479 231.445 259.414 229.274 258.069C224.087 251.729 216.127 247.432 221.315 236.917C223.913 231.649 249.343 210.326 254.788 205.377L288.858 175.006C292.137 172.094 295.504 169.276 298.326 165.888C309.938 151.946 289.985 133.25 273.449 144.231C265.109 149.769 258.291 157.692 251.319 164.829L219.226 198.32C213.521 204.317 194.788 226.786 186.179 226.023C172.716 224.831 178.214 204.996 179.53 196.809C182.436 178.726 195.172 140.286 166.718 137.227C164.984 137.04 163.493 137.28 161.703 137.109L161.455 137.083Z"/><path fill="#9FA1EB" transform="scale(2 2)" d="M142.255 258.069L142.251 171.867C142.255 157.184 143.169 141.148 161.455 137.083L161.703 137.109C163.493 137.28 164.984 137.04 166.718 137.227C195.172 140.286 182.436 178.726 179.53 196.809C178.214 204.996 172.716 224.831 186.179 226.023C194.788 226.786 213.521 204.317 219.226 198.32L251.319 164.829C258.291 157.692 265.109 149.769 273.449 144.231C289.985 133.25 309.938 151.946 298.326 165.888C295.504 169.276 292.137 172.094 288.858 175.006L254.788 205.377C249.343 210.326 223.913 231.649 221.315 236.917C216.127 247.432 224.087 251.729 229.274 258.069C226.067 258.797 212.027 258.054 208.082 258.055L142.255 258.069Z"/><path fill="#FEC302" transform="scale(2 2)" d="M406.764 153.247C422.745 135.875 440.281 148.71 436.73 163.253C435.487 168.343 431.773 172.027 428.407 175.838L418.239 187.385C415.177 190.806 410.984 195.049 408.75 198.912C404.927 201.457 390.12 216.64 390.277 222.057L390.054 219.733L389.822 219.636C375.916 233.918 363.024 251.249 354.805 269.383C353.584 272.076 352.181 275.724 350.494 278.047C349.406 272.977 317.86 243.162 316.16 242.561C313.107 241.482 310.663 244.826 308.296 246.134C312.103 237.923 323.322 233.567 330.689 229.996C352.48 216.983 372.576 192.608 389.25 173.728C392.57 170.633 405.606 155.482 406.764 153.247Z"/><path transform="scale(2 2)" d="M390.277 222.057C390.12 216.64 404.927 201.457 408.75 198.912L408.765 231.838C408.763 237.623 409.057 244.077 408.239 249.724C406.888 259.058 391.605 258.519 390.552 249.486C389.529 240.703 390.812 230.851 390.277 222.057Z"/><path transform="scale(2 2)" d="M302.972 252.532C304.706 249.445 305.633 248.435 308.296 246.134C310.663 244.826 313.107 241.482 316.16 242.561C317.86 243.162 349.406 272.977 350.494 278.047C348.772 281.827 341.812 289.914 337.317 288.82C332.57 285.643 316.859 270.085 312.749 264.689C310.996 263.264 309.905 262.24 308.296 260.641C305.454 257.822 303.563 256.488 302.972 252.532Z"/><path fill="#FBF408" transform="scale(2 2)" d="M276.214 286.926C278.57 277.905 295.025 257.166 302.972 252.532C303.563 256.488 305.454 257.822 308.296 260.641L308.066 260.865C303.582 265.178 299.672 267.575 295.352 272.643C288.516 280.665 268.366 313.724 268.352 318.989C268.346 321.462 276.279 309.952 276.792 309.247C287.793 294.148 296.104 274.832 312.749 264.689C316.859 270.085 332.57 285.643 337.317 288.82C328.935 300.199 318.105 312.167 305.033 317.687C303.664 318.265 301.473 319.266 300.219 320.021C294.361 320.908 288.798 323.789 282.83 324.707C254.87 329.124 262.006 319.122 270.072 298.259C272.044 294.106 273.492 290.663 276.214 286.926Z"/><path fill="#6B59C5" transform="scale(2 2)" d="M229.274 258.069C231.445 259.414 268.05 295.479 270.072 298.259C262.006 319.122 254.87 329.124 282.83 324.707C287.251 332.666 306.802 348.404 304.941 356.069C303.872 360.488 296.428 364.958 292.571 362.753C287.949 360.109 282.16 352.875 278.356 348.971L234.034 303.604C225.184 294.519 216.86 285.029 207.321 276.575C200.424 270.464 194.948 263.75 184.615 268.164C171.606 273.721 175.944 292.409 176.349 303.367C176.661 311.795 179.533 344.641 177.511 351.563C172.831 367.58 150.79 365.467 143.599 350.483C143.089 349.42 142.72 347.916 142.255 347.009C142.119 337.153 142.248 326.977 142.249 317.1L142.255 258.069L208.082 258.055C212.027 258.054 226.067 258.797 229.274 258.069Z"/><path transform="scale(2 2)" d="M282.83 324.707C288.798 323.789 294.361 320.908 300.219 320.021L312.237 333.347C313.989 335.306 316.16 337.936 317.917 339.737C333.888 359.689 301.186 398.844 276.214 371.761C274.128 369.095 268.569 363.796 265.915 361.048L192.836 285.323L192.829 285.575C192.72 290.564 193.228 296.309 193.451 301.419L194.648 330.003C195.323 345.654 197.716 357.511 185.668 369.92C167.977 388.142 141.962 373.517 142.255 347.009C142.72 347.916 143.089 349.42 143.599 350.483C150.79 365.467 172.831 367.58 177.511 351.563C179.533 344.641 176.661 311.795 176.349 303.367C175.944 292.409 171.606 273.721 184.615 268.164C194.948 263.75 200.424 270.464 207.321 276.575C216.86 285.029 225.184 294.519 234.034 303.604L278.356 348.971C282.16 352.875 287.949 360.109 292.571 362.753C296.428 364.958 303.872 360.488 304.941 356.069C306.802 348.404 287.251 332.666 282.83 324.707Z"/><path fill="#06B3F4" transform="scale(2 2)" d="M317.917 339.737C327.699 330.475 338.972 323.599 352.891 323.966C393.108 325.028 389.563 385.806 346.538 393.422C339.557 394.658 330.243 394.235 323.046 394.227L240.144 394.226C232.277 394.224 202.824 394.749 195.833 392.299C186.371 388.982 185.008 379.406 196.264 377.683C219.697 374.095 254.021 382.272 276.214 371.761C301.186 398.844 333.888 359.689 317.917 339.737Z"/>
</svg>